<svg width="54" height="54" viewBox="0 0 54 54" fill="none" xmlns="http://www.w3.org/2000/svg">
<path d="M50.5741 37.3318L39.6364 32.6442C39.1691 32.4451 38.6499 32.4031 38.1567 32.5246C37.6635 32.6462 37.2232 32.9246 36.902 33.318L32.0581 39.2361C24.4562 35.6519 18.3384 29.534 14.7541 21.9321L20.6722 17.0882C21.0664 16.7676 21.3454 16.3273 21.467 15.8339C21.5886 15.3405 21.5461 14.8209 21.346 14.3538L16.6585 3.41613C16.4388 2.91262 16.0504 2.50151 15.5601 2.25371C15.0699 2.0059 14.5085 1.93693 13.9729 2.05869L3.81644 4.40248C3.29999 4.52174 2.83922 4.81252 2.50932 5.22738C2.17942 5.64223 1.99988 6.15666 2 6.6867C2 31.736 22.3031 52 47.3133 52C47.8435 52.0003 48.3581 51.8209 48.7732 51.491C49.1883 51.1611 49.4792 50.7002 49.5985 50.1836L51.9423 40.0271C52.0632 39.4889 51.9928 38.9253 51.7431 38.4333C51.4934 37.9414 51.08 37.5518 50.5741 37.3318V37.3318Z" stroke="#ef7512" stroke-width="4"/>
</svg>
