<svg width="171" height="174" viewBox="0 0 171 174" fill="none" xmlns="http://www.w3.org/2000/svg">
<path d="M125.593 35.9585C95.4711 16.4291 55.2211 25.0157 35.6917 55.1372C16.1623 85.2587 24.7489 125.509 54.8704 145.038C73.3452 157.016 95.6303 158.418 114.608 150.76" stroke="#434343" stroke-width="3"/>
<path d="M60.8493 49.8027C37.6815 64.8293 31.0817 95.792 46.1083 118.96C61.1349 142.128 92.0976 148.727 115.265 133.701C118.804 131.406 121.955 128.739 124.703 125.786" stroke="#434343" stroke-width="3"/>
<path d="M66.7281 62.9631C50.4929 73.4544 45.8365 95.1204 56.3277 111.356C62.7103 121.233 73.2288 126.824 84.1442 127.327" stroke="#434343" stroke-width="3"/>
<g filter="url(#filter0_d)">
<path d="M147.239 100.8C147.784 100.8 148.203 101.049 148.497 101.548C148.832 102.046 149 102.731 149 103.603C149 105.222 148.602 106.509 147.805 107.464C145.792 109.872 143.759 111.741 141.704 113.069C139.65 114.356 137.218 115 134.409 115C131.683 115 129.356 114.273 127.428 112.82C125.541 111.367 123.738 108.876 122.019 105.347C120.635 102.523 119.545 100.447 118.748 99.1187C117.952 97.7485 117.155 96.7728 116.358 96.1915C115.604 95.6103 114.66 95.2573 113.528 95.1328C113.361 96.0047 112.878 98.745 112.082 103.354C111.746 105.43 111.537 106.696 111.453 107.153C111.034 109.685 110.195 111.637 108.937 113.007C107.679 114.336 105.771 115 103.214 115C100.405 115 97.9099 114.19 95.7296 112.571C93.5912 110.91 91.935 108.627 90.761 105.72C89.587 102.772 89 99.4301 89 95.6933C89 88.718 90.2159 82.6976 92.6478 77.6322C95.1216 72.5668 98.5597 68.7054 102.962 66.0482C107.407 63.3494 112.522 62 118.308 62C122.333 62 125.709 62.602 128.434 63.8061C131.159 65.0102 133.172 66.671 134.472 68.7885C135.813 70.906 136.484 73.2934 136.484 75.9506C136.484 78.2758 135.918 80.5593 134.786 82.8014C133.696 85.002 132.04 86.9534 129.818 88.6557C127.595 90.358 124.891 91.6244 121.704 92.4548C123.717 92.9945 125.268 93.8664 126.358 95.0705C127.449 96.2746 128.539 98.0392 129.629 100.364C130.803 102.855 131.956 104.682 133.088 105.845C134.262 107.007 135.604 107.589 137.113 107.589C138.455 107.589 139.734 107.153 140.95 106.281C142.166 105.367 143.696 103.831 145.541 101.672C146.044 101.091 146.61 100.8 147.239 100.8ZM104.849 95.0705C103.423 95.0705 102.438 94.7383 101.893 94.074C101.39 93.4097 101.138 92.6624 101.138 91.832C101.138 90.8355 101.453 90.0466 102.082 89.4653C102.753 88.8841 103.507 88.5934 104.346 88.5934H105.918C106.589 84.5245 107.218 81.0161 107.805 78.0682C108.35 75.3694 110.111 74.02 113.088 74.02C115.478 74.02 116.673 75.0787 116.673 77.1962C116.673 77.653 116.652 78.0059 116.61 78.255L114.723 88.5934C116.987 88.4689 119.042 87.9291 120.887 86.9741C122.774 86.0192 124.262 84.6906 125.352 82.9883C126.484 81.2859 127.05 79.3553 127.05 77.1962C127.05 74.5805 126.149 72.5253 124.346 71.0306C122.543 69.5358 119.901 68.7885 116.421 68.7885C112.505 68.7885 109.045 69.7128 106.042 71.5615C105.895 71.6521 105.749 71.7451 105.604 71.8402C105.268 72.0586 104.941 72.289 104.622 72.5314C103.51 73.3751 102.496 74.3638 101.58 75.4975C100.357 77.0098 99.3088 78.7801 98.434 80.8085C96.7149 84.7528 95.8553 89.5691 95.8553 95.2573C95.8553 97.9146 96.1279 100.198 96.673 102.108C97.218 104.018 97.8889 105.45 98.6855 106.405C99.4822 107.36 100.237 107.838 100.95 107.838C101.495 107.838 101.935 107.568 102.27 107.028C102.648 106.488 102.941 105.617 103.151 104.412L104.849 95.0705Z" fill="url(#paint0_linear)"/>
</g>
<g filter="url(#filter1_d)">
<path d="M84.2291 116C78.7127 116 74.2954 114.969 70.9772 112.908C67.6591 110.805 66 107.61 66 103.322C66 101.054 66.394 99.3228 67.1821 98.1272C67.9702 96.9315 69.1315 96.3337 70.6662 96.3337C71.786 96.3337 72.6985 96.6223 73.4036 97.1995C74.1088 97.7767 74.4613 98.5189 74.4613 99.4259C74.4613 100.25 74.3991 100.972 74.2747 101.59C74.2747 101.755 74.2332 102.044 74.1502 102.456C74.1088 102.869 74.088 103.301 74.088 103.755C74.088 105.61 75.0212 106.991 76.8877 107.898C78.7957 108.806 81.4502 109.259 84.8513 109.259C88.3768 109.259 91.1351 108.641 93.1259 107.404C95.1168 106.126 96.1123 104.353 96.1123 102.085C96.1123 100.683 95.656 99.4877 94.7436 98.4982C93.8311 97.4675 92.6904 96.6223 91.3217 95.9627C89.953 95.2618 88.0243 94.4166 85.5357 93.4271C82.3419 92.1902 79.7289 91.0152 77.6965 89.902C75.7056 88.7888 73.9843 87.2839 72.5326 85.3874C71.1224 83.4496 70.4173 81.0583 70.4173 78.2135C70.4173 75.245 71.2054 72.6064 72.7815 70.2976C74.3991 67.9887 76.7011 66.1953 79.6874 64.9172C82.7152 63.6391 86.2615 63 90.3263 63C93.3541 63 96.133 63.4535 98.6631 64.3606C101.193 65.2264 103.205 66.5663 104.698 68.3804C106.233 70.1945 107 72.4208 107 75.0595C107 77.6569 106.606 79.6153 105.818 80.9347C105.03 82.254 103.868 82.9137 102.334 82.9137C101.255 82.9137 100.343 82.5838 99.5964 81.9242C98.8913 81.2645 98.5387 80.4811 98.5387 79.5741C98.5387 78.7907 98.6009 78.0692 98.7253 77.4096C98.8498 76.1727 98.912 75.3893 98.912 75.0595C98.912 73.3279 98.0617 72.0086 96.3612 71.1015C94.6606 70.1945 92.5453 69.741 90.0152 69.741C86.4482 69.741 83.7107 70.4006 81.8027 71.72C79.9363 72.9981 79.003 74.8121 79.003 77.1622C79.003 78.7289 79.48 80.0688 80.434 81.182C81.4294 82.2952 82.653 83.2229 84.1047 83.965C85.5564 84.7071 87.5888 85.5935 90.2018 86.6243C93.3541 87.9024 95.8842 89.0568 97.7921 90.0875C99.7001 91.1182 101.318 92.52 102.645 94.2929C104.014 96.0657 104.698 98.2509 104.698 100.848C104.698 105.713 102.832 109.465 99.0986 112.104C95.4072 114.701 90.4507 116 84.2291 116Z" fill="url(#paint1_linear)"/>
</g>
<defs>
<filter id="filter0_d" x="89" y="62" width="63" height="56" filterUnits="userSpaceOnUse" color-interpolation-filters="sRGB">
<feFlood flood-opacity="0" result="BackgroundImageFix"/>
<feColorMatrix in="SourceAlpha" type="matrix" values="0 0 0 0 0 0 0 0 0 0 0 0 0 0 0 0 0 0 127 0"/>
<feOffset dx="2" dy="2"/>
<feGaussianBlur stdDeviation="0.5"/>
<feColorMatrix type="matrix" values="0 0 0 0 0 0 0 0 0 0 0 0 0 0 0 0 0 0 0.25 0"/>
<feBlend mode="normal" in2="BackgroundImageFix" result="effect1_dropShadow"/>
<feBlend mode="normal" in="SourceGraphic" in2="effect1_dropShadow" result="shape"/>
</filter>
<filter id="filter1_d" x="66" y="63" width="44" height="56" filterUnits="userSpaceOnUse" color-interpolation-filters="sRGB">
<feFlood flood-opacity="0" result="BackgroundImageFix"/>
<feColorMatrix in="SourceAlpha" type="matrix" values="0 0 0 0 0 0 0 0 0 0 0 0 0 0 0 0 0 0 127 0"/>
<feOffset dx="2" dy="2"/>
<feGaussianBlur stdDeviation="0.5"/>
<feColorMatrix type="matrix" values="0 0 0 0 0 0 0 0 0 0 0 0 0 0 0 0 0 0 0.25 0"/>
<feBlend mode="normal" in2="BackgroundImageFix" result="effect1_dropShadow"/>
<feBlend mode="normal" in="SourceGraphic" in2="effect1_dropShadow" result="shape"/>
</filter>
<linearGradient id="paint0_linear" x1="113.548" y1="33.9196" x2="113.548" y2="142.909" gradientUnits="userSpaceOnUse">
<stop stop-color="#F8676A"/>
<stop offset="0.53125" stop-color="#F62D3D"/>
</linearGradient>
<linearGradient id="paint1_linear" x1="85.7573" y1="35.3018" x2="85.7573" y2="143.528" gradientUnits="userSpaceOnUse">
<stop stop-color="#0D6CFF"/>
<stop offset="0.0001" stop-color="#3AA0F3"/>
<stop offset="0.515625" stop-color="#0C6AFF"/>
</linearGradient>
</defs>
</svg>
