<svg width="234" height="190" viewBox="0 0 234 190" fill="none" xmlns="http://www.w3.org/2000/svg">
<path d="M227.654 47.5521L12.1996 0.979779L9.39953 0.375948C7.97363 0.0656209 6.48929 0.164866 5.11718 0.662273C3.74506 1.15968 2.54091 2.03502 1.64319 3.18768C0.745472 4.34035 0.190624 5.7235 0.0424922 7.17808C-0.10564 8.63266 0.158972 10.0996 0.805835 11.4102L86.3501 185.487C86.9037 186.605 87.7174 187.574 88.7227 188.311C89.7279 189.049 90.8953 189.534 92.1265 189.725C93.3615 189.917 94.6248 189.806 95.8071 189.399C96.9895 188.993 98.0554 188.304 98.9127 187.393L158.33 124.614C158.752 124.156 159.265 123.791 159.835 123.542C160.406 123.292 161.022 123.163 161.644 123.164C162.49 123.152 163.323 123.371 164.055 123.797C164.786 124.223 165.388 124.841 165.797 125.583L177.967 148.14C178.744 149.644 180.001 150.845 181.537 151.55C183.074 152.256 184.801 152.426 186.445 152.034L186.506 152.02C188.17 151.667 189.667 150.763 190.757 149.454C191.847 148.145 192.466 146.507 192.514 144.804L194.952 92.7339C194.981 92.0843 195.143 91.4475 195.428 90.8631C195.734 90.2848 196.149 89.7715 196.65 89.3517L230.928 61.1559C232.054 60.2292 232.898 59.003 233.361 57.6181C233.824 56.2332 233.889 54.7455 233.547 53.3256C233.206 51.9056 232.471 50.6109 231.429 49.5898C230.387 48.5686 229.079 47.8624 227.654 47.5521H227.654ZM228.97 58.7589L194.692 86.9549C194.246 87.3154 193.841 87.7252 193.486 88.1764L11.8101 5.61443C11.6499 5.53973 11.4828 5.48099 11.3111 5.439C10.6103 5.25801 9.86848 5.32811 9.21386 5.63718C8.55923 5.94625 8.03296 6.47484 7.72609 7.13155C7.41923 7.78825 7.35104 8.53174 7.53333 9.23349C7.71562 9.93524 8.13693 10.5511 8.72438 10.9746L158.102 120.928C157.344 121.322 156.66 121.845 156.079 122.473L96.6628 185.252C96.1472 185.795 95.5083 186.206 94.8003 186.449C94.0923 186.693 93.3362 186.761 92.5962 186.649C91.8562 186.536 91.1542 186.247 90.5498 185.805C89.9454 185.362 89.4565 184.78 89.1247 184.108L3.58042 10.0317C3.19799 9.24518 3.0437 8.36683 3.13516 7.49673C3.22662 6.62663 3.56013 5.79973 4.0977 5.11031C4.63527 4.42088 5.35529 3.89664 6.17571 3.59727C6.99614 3.2979 7.88399 3.23544 8.7381 3.41705L11.6046 4.03775L226.992 50.5934C227.847 50.7789 228.633 51.202 229.259 51.8143C229.886 52.4265 230.328 53.2031 230.534 54.0552C230.74 54.9073 230.703 55.8003 230.427 56.6322C230.15 57.4641 229.645 58.2011 228.97 58.7589Z" fill="#F9A826"/>
<path d="M227.654 47.5521L12.1996 0.979779L9.39953 0.375948C7.97363 0.0656209 6.48929 0.164866 5.11718 0.662273C3.74506 1.15968 2.54091 2.03502 1.64319 3.18768C0.745472 4.34035 0.190624 5.7235 0.0424922 7.17808C-0.10564 8.63266 0.158972 10.0996 0.805835 11.4102L86.3501 185.487C86.9037 186.605 87.7174 187.574 88.7227 188.311C89.7279 189.049 90.8953 189.534 92.1265 189.725C93.3615 189.917 94.6248 189.806 95.8071 189.399C96.9895 188.993 98.0554 188.304 98.9127 187.393L158.33 124.614C158.752 124.156 159.265 123.791 159.835 123.542C160.406 123.292 161.022 123.163 161.644 123.164C162.49 123.152 163.323 123.371 164.055 123.797C164.786 124.223 165.388 124.841 165.797 125.583L177.967 148.14C178.744 149.644 180.001 150.845 181.537 151.55C183.074 152.256 184.801 152.426 186.445 152.034L186.506 152.02C188.17 151.667 189.667 150.763 190.757 149.454C191.847 148.145 192.466 146.507 192.514 144.804L194.952 92.7339C194.981 92.0843 195.143 91.4475 195.428 90.8631C195.734 90.2848 196.149 89.7715 196.65 89.3517L230.928 61.1559C232.054 60.2292 232.898 59.003 233.361 57.6181C233.824 56.2332 233.889 54.7455 233.547 53.3256C233.206 51.9056 232.471 50.6109 231.429 49.5898C230.387 48.5686 229.079 47.8624 227.654 47.5521H227.654ZM228.97 58.7589L194.692 86.9549C194.246 87.3154 193.841 87.7252 193.486 88.1764C193.165 88.5779 192.889 89.0124 192.66 89.4728C192.421 89.9435 192.233 90.4384 192.098 90.9492L192.102 90.9643C191.96 91.4963 191.878 92.0426 191.858 92.5929L189.42 144.662C189.4 145.686 189.032 146.673 188.378 147.459C187.724 148.246 186.822 148.786 185.821 148.991L185.791 148.998C184.804 149.243 183.764 149.148 182.838 148.727C181.912 148.305 181.156 147.583 180.691 146.677L168.517 124.105C167.89 122.944 166.977 121.963 165.866 121.255C164.754 120.547 163.48 120.135 162.164 120.059L162.149 120.062C161.972 120.054 161.796 120.045 161.623 120.051C160.396 120.052 159.187 120.353 158.102 120.928C157.344 121.322 156.66 121.845 156.079 122.473L96.6628 185.252C96.1472 185.795 95.5083 186.206 94.8003 186.449C94.0924 186.693 93.3362 186.761 92.5962 186.649C91.8562 186.536 91.1542 186.247 90.5499 185.805C89.9455 185.362 89.4566 184.78 89.1247 184.108L3.58042 10.0317C3.19799 9.24518 3.0437 8.36683 3.13516 7.49673C3.22662 6.62663 3.56013 5.79973 4.0977 5.11031C4.63527 4.42088 5.35529 3.89664 6.17571 3.59727C6.99614 3.2979 7.88399 3.23544 8.7381 3.41705L11.6046 4.03775L226.992 50.5934C227.847 50.7789 228.633 51.202 229.259 51.8143C229.886 52.4265 230.328 53.2031 230.534 54.0552C230.74 54.9073 230.703 55.8003 230.427 56.6322C230.15 57.4641 229.645 58.2011 228.97 58.7589Z" fill="#3F3D56"/>
<path d="M194.173 88.4853L192.893 91.314L192.102 90.9644L192.098 90.9492L10.5667 8.46687L162.149 120.062L162.164 120.059L162.565 120.367L160.738 122.872L158.102 120.928L8.72423 10.9746C8.13678 10.5511 7.71547 9.93528 7.53318 9.23353C7.35089 8.53178 7.41908 7.78825 7.72594 7.13154C8.03281 6.47484 8.55908 5.94624 9.21371 5.63717C9.86833 5.32811 10.6102 5.25801 11.3109 5.43899C11.4826 5.48099 11.6498 5.53977 11.81 5.61447L193.485 88.1764L194.173 88.4853Z" fill="#3F3D56"/>
</svg>
