<svg width="81" height="92" viewBox="0 0 81 92" fill="none" xmlns="http://www.w3.org/2000/svg">
<path d="M80.5625 68.5714C75.5589 68.5714 74.9804 62.8571 67.2589 62.8571C59.5036 62.8571 58.8973 68.5714 53.9107 68.5714C48.9652 68.5714 48.2939 62.8571 40.5625 62.8571C32.9121 62.8571 32.1307 68.5714 27.2589 68.5714C22.2325 68.5714 21.6871 62.8571 13.9107 62.8571C6.13446 62.8571 5.57982 68.5714 0.5625 68.5714V54.2857C0.5625 49.5536 4.40179 45.7143 9.13393 45.7143H11.9911V20H23.4196V45.7143H34.8482V20H46.2768V45.7143H57.7054V20H69.1339V45.7143H71.9911C76.7232 45.7143 80.5625 49.5536 80.5625 54.2857V68.5714ZM80.5625 91.4286H0.5625V74.2857C8.30464 74.2857 8.91375 68.5714 13.9107 68.5714C18.902 68.5714 19.4916 74.2857 27.2589 74.2857C34.9095 74.2857 35.6905 68.5714 40.5625 68.5714C45.5889 68.5714 46.1341 74.2857 53.9107 74.2857C61.653 74.2857 62.262 68.5714 67.2589 68.5714C72.1675 68.5714 72.8396 74.2857 80.5625 74.2857V91.4286ZM17.7054 17.1429C14.5357 17.1429 11.9911 14.5982 11.9911 11.4286C11.9911 5.89286 17.7054 7.32143 17.7054 0C19.8482 0 23.4196 5.26786 23.4196 10C23.4196 14.7321 20.875 17.1429 17.7054 17.1429ZM40.5625 17.1429C37.3929 17.1429 34.8482 14.5982 34.8482 11.4286C34.8482 5.89286 40.5625 7.32143 40.5625 0C42.7054 0 46.2768 5.26786 46.2768 10C46.2768 14.7321 43.7321 17.1429 40.5625 17.1429ZM63.4196 17.1429C60.25 17.1429 57.7054 14.5982 57.7054 11.4286C57.7054 5.89286 63.4196 7.32143 63.4196 0C65.5625 0 69.1339 5.26786 69.1339 10C69.1339 14.7321 66.5893 17.1429 63.4196 17.1429Z" fill="#1D353F"/>
</svg>
