<svg width="100" height="77" viewBox="0 0 100 77" fill="none" xmlns="http://www.w3.org/2000/svg">
<path d="M56.0092 20.4327C46.0512 20.4327 31.9707 28.5036 31.9707 38.4616C31.9707 32.0862 34.5033 25.9719 39.0114 21.4638C43.5195 16.9557 49.6338 14.4231 56.0092 14.4231V20.4327Z" fill="#EF7512"/>
<path fill-rule="evenodd" clip-rule="evenodd" d="M88.0587 8.41354H75.9493C70.043 4.48287 63.104 2.39154 56.0094 2.40392C48.9149 2.39226 41.976 4.48353 36.0695 8.41354H11.9409C6.41203 8.41354 1.92285 12.8967 1.92285 18.4316V58.4917C1.92285 64.0205 6.40602 68.5097 11.9409 68.5097H36.0695C41.7786 72.3078 48.6356 74.5193 56.0094 74.5193C63.1039 74.5306 70.0426 72.4394 75.9493 68.5097H88.0587C93.5875 68.5097 98.0767 64.0265 98.0767 58.4917V18.4316C98.0767 12.9027 93.5935 8.41354 88.0587 8.41354ZM56.0094 68.5097C63.9786 68.5097 71.6215 65.3439 77.2566 59.7088C82.8917 54.0737 86.0575 46.4309 86.0575 38.4616C86.0575 30.4924 82.8917 22.8495 77.2566 17.2144C71.6215 11.5793 63.9786 8.41354 56.0094 8.41354C48.0401 8.41354 40.3973 11.5793 34.7622 17.2144C29.1271 22.8495 25.9613 30.4924 25.9613 38.4616C25.9613 46.4309 29.1271 54.0737 34.7622 59.7088C40.3973 65.3439 48.0401 68.5097 56.0094 68.5097Z" fill="#1D353F"/>
<ellipse cx="13.6152" cy="21.3077" rx="4" ry="4" fill="#EF7512"/>
</svg>
