<svg width="101" height="100" viewBox="0 0 101 100" fill="none" xmlns="http://www.w3.org/2000/svg">
<path d="M71.4885 55.9107C70.2382 54.7551 68.4005 54.4709 66.828 54.2057C64.6493 53.8457 63.8157 53.4479 62.5464 52.3111C59.8372 49.9051 59.8372 46.4191 62.5464 44.0131L68.2868 38.9168C77.0774 31.1492 77.0774 18.418 68.2868 10.6504C61.8075 4.94785 53.1116 2.125 44.0747 2.125C33.5221 2.125 22.496 5.9709 13.9895 13.5111C-1.82984 27.4928 -1.82984 50.3977 13.9895 64.3793C21.8518 71.3322 32.4612 74.7992 42.9569 74.875H43.279C53.7747 74.875 64.1188 71.4838 71.4696 64.9477C74.1977 62.5416 73.7411 58.0137 71.4885 55.9107V55.9107Z" stroke="#1D353F" stroke-width="4" stroke-miterlimit="10"/>
<path d="M17.2812 35.4688C20.6295 35.4688 23.3438 32.7545 23.3438 29.4062C23.3438 26.058 20.6295 23.3438 17.2812 23.3438C13.933 23.3438 11.2188 26.058 11.2188 29.4062C11.2188 32.7545 13.933 35.4688 17.2812 35.4688Z" stroke="#1D353F" stroke-width="3"/>
<path d="M18.7969 54.9824C22.1451 54.9824 24.8594 52.2681 24.8594 48.9199C24.8594 45.5717 22.1451 42.8574 18.7969 42.8574C15.4486 42.8574 12.7344 45.5717 12.7344 48.9199C12.7344 52.2681 15.4486 54.9824 18.7969 54.9824Z" stroke="#1D353F" stroke-width="3"/>
<path d="M32.4375 23.3438C35.7857 23.3438 38.5 20.6295 38.5 17.2812C38.5 13.933 35.7857 11.2188 32.4375 11.2188C29.0893 11.2188 26.375 13.933 26.375 17.2812C26.375 20.6295 29.0893 23.3438 32.4375 23.3438Z" stroke="#1D353F" stroke-width="3"/>
<path d="M38.5 68.623C43.5223 68.623 47.5938 64.5516 47.5938 59.5293C47.5938 54.507 43.5223 50.4355 38.5 50.4355C33.4777 50.4355 29.4062 54.507 29.4062 59.5293C29.4062 64.5516 33.4777 68.623 38.5 68.623Z" stroke="#1D353F" stroke-width="3"/>
<path d="M52.1406 23.3438C55.4889 23.3438 58.2031 20.6295 58.2031 17.2812C58.2031 13.933 55.4889 11.2188 52.1406 11.2188C48.7924 11.2188 46.0781 13.933 46.0781 17.2812C46.0781 20.6295 48.7924 23.3438 52.1406 23.3438Z" stroke="#1D353F" stroke-width="3" stroke-linejoin="round"/>
<g clip-path="url(#clip0)">
<path d="M72.786 38.2876C73.8806 41.459 76.3868 43.6834 80.3184 44.4522C80.8816 43.7969 81.3965 43.1831 81.8437 42.6268C82.5464 41.7525 83.0972 41.0057 83.4701 40.4246C81.6202 40.3956 79.8578 39.6625 78.5123 38.5358C77.2827 37.5062 76.3683 36.0957 76.1169 34.5488C75.6381 35.0057 75.0575 35.6214 74.3968 36.3751C73.9046 36.9369 73.3629 37.5823 72.786 38.2876Z" fill="#FF9D76"/>
<path d="M49.2805 72.0604C49.2835 72.1032 49.2876 72.1459 49.2927 72.1884C49.353 72.686 49.551 73.0147 49.8055 73.2283C50.1448 73.5131 50.6681 73.6636 51.4678 73.4681C52.2675 73.2724 53.3047 72.6983 54.4064 71.5738C62.2068 63.6117 69.7293 55.9799 75.2619 50.0525C76.5994 48.6195 77.8177 47.2885 78.8975 46.0754C75.3896 45.0844 72.8135 42.8987 71.4253 39.9813C70.4402 41.2282 69.3698 42.6205 68.2226 44.1428C63.3428 50.6182 57.1287 59.3489 50.6379 68.4102C49.7211 69.6898 49.3353 70.8109 49.2811 71.6324C49.2712 71.7749 49.2711 71.9179 49.2805 72.0604ZM77.9865 34.0425C78.0977 35.1479 78.7429 36.2211 79.7466 37.0615C81.0847 38.1821 82.9907 38.7812 84.7618 38.3686C88.6869 37.454 91.5459 35.2296 92.9492 32.3497C94.1895 29.8041 94.318 26.7122 92.9157 23.3822C92.7138 25.9975 90.079 28.614 87.9722 28.9825C89.2374 27.7321 90.3626 26.2064 90.9947 24.5977C88.6834 25.8591 86.2424 25.9991 84.2515 26.3752C82.8249 26.6447 81.6287 27.0213 80.6147 27.9127C79.6006 28.804 78.6968 30.2703 78.0598 32.9338C77.9732 33.2966 77.9485 33.6715 77.9865 34.0425Z" fill="#1D353F"/>
</g>
<defs>
<clipPath id="clip0">
<rect width="54.703" height="54.703" fill="white" transform="translate(42 73.5213) rotate(-85.3291)"/>
</clipPath>
</defs>
</svg>
