<svg width="85" height="83" viewBox="0 0 85 83" fill="none" xmlns="http://www.w3.org/2000/svg">
<path d="M56.407 31.867C56.7412 31.5777 57.1718 31.387 57.6377 31.3218C58.1037 31.2566 58.5815 31.3202 59.0035 31.5037L76 39.1092V56.6873H13V48.8748L24.907 39.6795C25.2748 39.3614 25.758 39.1635 26.2747 39.1194C26.7914 39.0752 27.3098 39.1876 27.742 39.4373L39.712 46.3631L56.407 31.8709V31.867Z" stroke="#EF7512" stroke-width="2"/>
<path fill-rule="evenodd" clip-rule="evenodd" d="M27.0625 31.625C27.8504 31.625 28.6306 31.4698 29.3586 31.1683C30.0866 30.8667 30.748 30.4248 31.3051 29.8676C31.8623 29.3105 32.3042 28.6491 32.6058 27.9211C32.9073 27.1931 33.0625 26.4129 33.0625 25.625C33.0625 24.8371 32.9073 24.0569 32.6058 23.3289C32.3042 22.6009 31.8623 21.9395 31.3051 21.3824C30.748 20.8252 30.0866 20.3833 29.3586 20.0817C28.6306 19.7802 27.8504 19.625 27.0625 19.625C25.4712 19.625 23.9451 20.2571 22.8199 21.3824C21.6946 22.5076 21.0625 24.0337 21.0625 25.625C21.0625 27.2163 21.6946 28.7424 22.8199 29.8676C23.9451 30.9929 25.4712 31.625 27.0625 31.625V31.625Z" stroke="#EF7512" stroke-width="2"/>
<path d="M12.1505 58.2499H76.1504V14.25H12.1505V58.2499ZM48.1505 66.2499V74.2499H64.1504V82.2498H24.1505V74.2499H40.1505V66.2499H8.11855C7.59329 66.2467 7.07382 66.14 6.5899 65.9357C6.10598 65.7314 5.66714 65.4337 5.29852 65.0595C4.9299 64.6853 4.63875 64.242 4.44176 63.7551C4.24477 63.2681 4.14581 62.7471 4.15055 62.2219V10.278C4.15055 8.054 5.97055 6.25 8.11855 6.25H80.1824C82.3744 6.25 84.1504 8.046 84.1504 10.278V62.2219C84.1504 64.4459 82.3304 66.2499 80.1824 66.2499H48.1505Z" fill="#1D353F"/>
</svg>
