<svg width="170" height="174" viewBox="0 0 170 174" fill="none" xmlns="http://www.w3.org/2000/svg">
<path d="M116.196 36.3427C86.0901 16.8235 45.8611 25.4056 26.3419 55.5114C6.82267 85.6172 15.4048 125.846 45.5106 145.365C63.9758 157.337 86.2493 158.738 105.217 151.085" stroke="#434343" stroke-width="4"/>
<path d="M51.4862 50.1797C28.3305 65.1985 21.7342 96.145 36.7529 119.301C51.7717 142.456 82.7182 149.053 105.874 134.034C109.41 131.74 112.561 129.075 115.306 126.123" stroke="#434343" stroke-width="4"/>
<path d="M57.3621 63.3333C41.1353 73.819 36.4813 95.4738 46.9671 111.7C53.3463 121.572 63.8593 127.161 74.7691 127.663" stroke="#434343" stroke-width="4"/>
<g filter="url(#filter0_d)">
<path d="M160.828 101.585C161.5 101.585 162.017 101.891 162.379 102.502C162.793 103.113 163 103.953 163 105.022C163 107.008 162.509 108.587 161.526 109.758C159.044 112.711 156.536 115.003 154.002 116.632C151.468 118.211 148.469 119 145.004 119C141.643 119 138.773 118.109 136.394 116.327C134.067 114.544 131.843 111.489 129.723 107.161C128.017 103.698 126.672 101.152 125.69 99.5229C124.707 97.8425 123.725 96.6459 122.742 95.933C121.811 95.2201 120.648 94.7873 119.252 94.6345C119.045 95.7039 118.45 99.0646 117.468 104.717C117.054 107.263 116.795 108.816 116.692 109.376C116.175 112.482 115.14 114.875 113.589 116.556C112.038 118.185 109.685 119 106.53 119C103.066 119 99.9888 118.007 97.2998 116.021C94.6625 113.984 92.6198 111.184 91.1719 107.619C89.724 104.004 89 99.9048 89 95.322C89 86.7673 90.4997 79.3839 93.499 73.1716C96.55 66.9593 100.79 62.2237 106.22 58.9647C111.702 55.6549 118.01 54 125.147 54C130.111 54 134.274 54.7383 137.635 56.215C140.997 57.6917 143.479 59.7286 145.082 62.3255C146.737 64.9224 147.564 67.8504 147.564 71.1093C147.564 73.9608 146.866 76.7615 145.47 79.5112C144.125 82.2099 142.082 84.6032 139.342 86.6909C136.601 88.7787 133.266 90.3318 129.335 91.3502C131.818 92.0121 133.731 93.0815 135.075 94.5582C136.42 96.0349 137.764 98.199 139.109 101.051C140.557 104.106 141.979 106.346 143.375 107.772C144.823 109.198 146.478 109.911 148.34 109.911C149.994 109.911 151.572 109.376 153.071 108.307C154.571 107.186 156.458 105.302 158.734 102.655C159.354 101.942 160.052 101.585 160.828 101.585ZM108.547 94.5582C106.789 94.5582 105.574 94.1508 104.901 93.3361C104.281 92.5213 103.971 91.6048 103.971 90.5864C103.971 89.3643 104.358 88.3968 105.134 87.6839C105.962 86.971 106.892 86.6146 107.927 86.6146H109.866C110.693 81.6244 111.469 77.3216 112.193 73.7062C112.865 70.3964 115.037 68.7415 118.709 68.7415C121.656 68.7415 123.13 70.0399 123.13 72.6369C123.13 73.197 123.104 73.6298 123.052 73.9354L120.725 86.6146C123.518 86.4618 126.052 85.7998 128.327 84.6287C130.654 83.4575 132.49 81.828 133.834 79.7403C135.231 77.6526 135.929 75.2848 135.929 72.6369C135.929 69.4289 134.817 66.9083 132.593 65.0752C130.37 63.2421 127.112 62.3255 122.82 62.3255C117.989 62.3255 113.722 63.4591 110.019 65.7263C109.837 65.8375 109.657 65.9515 109.478 66.0682C109.064 66.336 108.66 66.6186 108.267 66.9158C106.896 67.9505 105.645 69.1631 104.515 70.5536C103.007 72.4082 101.714 74.5794 100.635 77.067C98.515 81.9044 97.4549 87.8112 97.4549 94.7873C97.4549 98.0462 97.7911 100.847 98.4633 103.189C99.1356 105.532 99.963 107.288 100.945 108.459C101.928 109.631 102.859 110.216 103.738 110.216C104.41 110.216 104.953 109.885 105.367 109.223C105.832 108.561 106.194 107.492 106.453 106.015L108.547 94.5582Z" fill="url(#paint0_linear)"/>
</g>
<g filter="url(#filter1_d)">
<path d="M83.2307 120C76.5033 120 71.1163 118.736 67.0698 116.208C63.0233 113.629 61 109.71 61 104.452C61 101.671 61.4805 99.5469 62.4416 98.0805C63.4026 96.6142 64.8189 95.881 66.6904 95.881C68.0561 95.881 69.1689 96.2349 70.0288 96.9428C70.8887 97.6507 71.3187 98.5609 71.3187 99.6733C71.3187 100.685 71.2428 101.569 71.091 102.328C71.091 102.53 71.0405 102.884 70.9393 103.39C70.8887 103.895 70.8634 104.426 70.8634 104.982C70.8634 107.258 72.0015 108.952 74.2777 110.064C76.6045 111.177 79.8417 111.733 83.9894 111.733C88.2888 111.733 91.6525 110.974 94.0804 109.457C96.5083 107.89 97.7223 105.716 97.7223 102.935C97.7223 101.215 97.1659 99.7491 96.0531 98.5356C94.9403 97.2715 93.5493 96.2349 91.8801 95.4259C90.2109 94.5663 87.8589 93.5298 84.824 92.3162C80.9292 90.7993 77.7425 89.3582 75.264 87.993C72.8361 86.6278 70.737 84.7822 68.9666 82.4562C67.2468 80.0797 66.387 77.147 66.387 73.6581C66.387 70.0175 67.348 66.7814 69.2701 63.9498C71.2428 61.1182 74.0501 58.9187 77.692 57.3512C81.3844 55.7837 85.7092 55 90.6662 55C94.3586 55 97.7476 55.5562 100.833 56.6686C103.919 57.7305 106.372 59.3738 108.193 61.5986C110.064 63.8234 111 66.5539 111 69.79C111 72.9755 110.519 75.3773 109.558 76.9953C108.597 78.6134 107.181 79.4224 105.31 79.4224C103.994 79.4224 102.882 79.0179 101.971 78.2089C101.111 77.3998 100.681 76.4391 100.681 75.3267C100.681 74.366 100.757 73.4811 100.909 72.6721C101.061 71.1552 101.137 70.1945 101.137 69.79C101.137 67.6663 100.1 66.0482 98.0258 64.9358C95.9519 63.8234 93.3723 63.2672 90.2868 63.2672C85.9368 63.2672 82.5984 64.0762 80.2716 65.6943C77.9954 67.2618 76.8574 69.4866 76.8574 72.3687C76.8574 74.2902 77.439 75.9335 78.6024 77.2987C79.8164 78.6639 81.3085 79.8016 83.0789 80.7118C84.8493 81.6219 87.3278 82.7091 90.5144 83.9732C94.3586 85.5406 97.4441 86.9564 99.7709 88.2205C102.098 89.4846 104.07 91.2038 105.689 93.3781C107.358 95.5523 108.193 98.2322 108.193 101.418C108.193 107.384 105.917 111.986 101.364 115.222C96.8624 118.407 90.8179 120 83.2307 120Z" fill="url(#paint1_linear)"/>
</g>
<defs>
<filter id="filter0_d" x="89" y="54" width="77" height="68" filterUnits="userSpaceOnUse" color-interpolation-filters="sRGB">
<feFlood flood-opacity="0" result="BackgroundImageFix"/>
<feColorMatrix in="SourceAlpha" type="matrix" values="0 0 0 0 0 0 0 0 0 0 0 0 0 0 0 0 0 0 127 0"/>
<feOffset dx="2" dy="2"/>
<feGaussianBlur stdDeviation="0.5"/>
<feColorMatrix type="matrix" values="0 0 0 0 0 0 0 0 0 0 0 0 0 0 0 0 0 0 0.25 0"/>
<feBlend mode="normal" in2="BackgroundImageFix" result="effect1_dropShadow"/>
<feBlend mode="normal" in="SourceGraphic" in2="effect1_dropShadow" result="shape"/>
</filter>
<filter id="filter1_d" x="61" y="55" width="53" height="68" filterUnits="userSpaceOnUse" color-interpolation-filters="sRGB">
<feFlood flood-opacity="0" result="BackgroundImageFix"/>
<feColorMatrix in="SourceAlpha" type="matrix" values="0 0 0 0 0 0 0 0 0 0 0 0 0 0 0 0 0 0 127 0"/>
<feOffset dx="2" dy="2"/>
<feGaussianBlur stdDeviation="0.5"/>
<feColorMatrix type="matrix" values="0 0 0 0 0 0 0 0 0 0 0 0 0 0 0 0 0 0 0.25 0"/>
<feBlend mode="normal" in2="BackgroundImageFix" result="effect1_dropShadow"/>
<feBlend mode="normal" in="SourceGraphic" in2="effect1_dropShadow" result="shape"/>
</filter>
<linearGradient id="paint0_linear" x1="119.276" y1="19.5618" x2="119.276" y2="153.228" gradientUnits="userSpaceOnUse">
<stop stop-color="#F8676A"/>
<stop offset="0.53125" stop-color="#F62D3D"/>
</linearGradient>
<linearGradient id="paint1_linear" x1="85.0943" y1="21.0305" x2="85.0943" y2="153.761" gradientUnits="userSpaceOnUse">
<stop stop-color="#0D6CFF"/>
<stop offset="0.0001" stop-color="#3AA0F3"/>
<stop offset="0.515625" stop-color="#0C6AFF"/>
</linearGradient>
</defs>
</svg>
