<svg width="99" height="111" viewBox="0 0 99 111" fill="none" xmlns="http://www.w3.org/2000/svg">
<path d="M44.6395 40.5932C34.7811 40.5284 25.6218 46.0592 21.3891 55.5662C18.6383 61.7445 18.4545 68.7625 20.8782 75.0763C23.3018 81.3902 28.1344 86.4826 34.3127 89.2334C40.491 91.9841 47.509 92.1679 53.8228 89.7443C60.1367 87.3206 65.2291 82.4881 67.9799 76.3097C72.2126 66.8028 70.1941 56.2953 63.5493 49.0124L70.0991 45.1107C77.8311 54.4684 79.9611 67.429 74.6792 79.2925C71.1374 87.2476 64.5804 93.4699 56.4509 96.5905C48.3213 99.7112 39.285 99.4745 31.3299 95.9327C23.3748 92.3909 17.1526 85.8339 14.0319 77.7044C10.9113 69.5748 11.1479 60.5385 14.6897 52.5834C19.9717 40.72 31.0286 33.6306 43.1564 33.1151L44.6395 40.5932Z" fill="#1D353F" stroke="#A34D07"/>
<path d="M54.2327 16.5519L57.5227 18.0167L51.6152 22.9943L48.3252 21.5295L54.2327 16.5519ZM66.7871 29.7493L57.3939 25.5672L63.3012 20.5894L66.5337 22.0286L66.7871 29.7493ZM72.5663 32.3224L72.3125 24.6015L75.6025 26.0664L75.8563 33.7872L72.5663 32.3224ZM48.6977 29.0185L48.2716 35.106L46.7913 28.1697L48.6977 29.0185ZM64.6109 36.1032L52.9571 48.1725L54.1284 31.4364L64.6109 36.1032ZM71.9479 39.3701L65.8026 42.9113L70.0415 38.5214L71.9479 39.3701Z" fill="#1D353F" stroke="#EF7512" stroke-width="2"/>
<line x1="84.0288" y1="25.0524" x2="88.6967" y2="23.2606" stroke="#EF7512"/>
<line x1="76.8965" y1="41.0719" x2="81.5644" y2="39.2801" stroke="#EF7512"/>
<line y1="-0.5" x2="5" y2="-0.5" transform="matrix(-0.358368 -0.93358 -0.93358 0.358368 46.3286 8.65411)" stroke="#EF7512"/>
<line y1="-0.5" x2="5" y2="-0.5" transform="matrix(-0.358368 -0.93358 -0.93358 0.358368 39.1958 24.6736)" stroke="#EF7512"/>
</svg>
